<svg width="336" height="122" viewBox="0 0 336 122" fill="none" xmlns="http://www.w3.org/2000/svg">
<path d="M67.4915 5.54545H63.8182V16.5227H63.6648L56.1307 5.54545H52.892V23H56.5824V12.0142H56.7102L64.304 23H67.4915V5.54545ZM70.4723 23H74.103V9.90909H70.4723V23ZM72.2962 8.22159C73.3786 8.22159 74.2649 7.39489 74.2649 6.38068C74.2649 5.375 73.3786 4.54829 72.2962 4.54829C71.2223 4.54829 70.3359 5.375 70.3359 6.38068C70.3359 7.39489 71.2223 8.22159 72.2962 8.22159ZM80.642 15.4318C80.6506 13.7443 81.6562 12.7557 83.1222 12.7557C84.5795 12.7557 85.4574 13.7102 85.4489 15.3125V23H89.0795V14.6648C89.0795 11.6136 87.2898 9.73864 84.5625 9.73864C82.6193 9.73864 81.2131 10.6932 80.625 12.2188H80.4716V9.90909H77.0114V23H80.642V15.4318ZM97.8388 28.1818C101.58 28.1818 104.239 26.4773 104.239 23.1278V9.90909H100.634V12.108H100.498C100.012 11.0426 98.9467 9.73864 96.7564 9.73864C93.8842 9.73864 91.4553 11.9716 91.4553 16.429C91.4553 20.7841 93.8161 22.8125 96.7649 22.8125C98.853 22.8125 100.021 21.7642 100.498 20.6818H100.651V23.0767C100.651 24.875 99.5007 25.5739 97.924 25.5739C96.3217 25.5739 95.5121 24.875 95.2138 24.0824L91.8558 24.5341C92.2905 26.5966 94.3104 28.1818 97.8388 28.1818ZM97.9155 20.0852C96.1342 20.0852 95.1626 18.6705 95.1626 16.4119C95.1626 14.1875 96.1172 12.6278 97.9155 12.6278C99.6797 12.6278 100.668 14.1193 100.668 16.4119C100.668 18.7216 99.6626 20.0852 97.9155 20.0852ZM115.523 17.4261C115.532 19.1818 114.33 20.1023 113.026 20.1023C111.654 20.1023 110.768 19.1392 110.759 17.5966V9.90909H107.129V18.2443C107.137 21.304 108.927 23.1705 111.56 23.1705C113.529 23.1705 114.944 22.1562 115.532 20.6222H115.668V23H119.154V9.90909H115.523V17.4261ZM111.85 8.22159H114.415L117.015 4.34375H113.657L111.85 8.22159ZM125.689 15.4318C125.697 13.7443 126.703 12.7557 128.169 12.7557C129.626 12.7557 130.504 13.7102 130.496 15.3125V23H134.126V14.6648C134.126 11.6136 132.337 9.73864 129.609 9.73864C127.666 9.73864 126.26 10.6932 125.672 12.2188H125.518V9.90909H122.058V23H125.689V15.4318ZM142.543 23H146.173V15.142C146.173 13.6932 147.094 12.7301 148.304 12.7301C149.497 12.7301 150.298 13.5483 150.298 14.8352V23H153.818V15.0057C153.818 13.6506 154.594 12.7301 155.915 12.7301C157.074 12.7301 157.943 13.4545 157.943 14.9119V23H161.565V14.196C161.565 11.358 159.878 9.73864 157.44 9.73864C155.523 9.73864 154.031 10.7188 153.494 12.2188H153.358C152.94 10.7017 151.602 9.73864 149.804 9.73864C148.04 9.73864 146.702 10.6761 146.156 12.2188H146.003V9.90909H142.543V23ZM170.399 23.2557C173.638 23.2557 175.82 21.679 176.331 19.25L172.973 19.0284C172.607 20.0256 171.669 20.5455 170.459 20.5455C168.643 20.5455 167.493 19.3438 167.493 17.392V17.3835H176.408V16.3864C176.408 11.9375 173.714 9.73864 170.254 9.73864C166.402 9.73864 163.905 12.4744 163.905 16.5142C163.905 20.6648 166.368 23.2557 170.399 23.2557ZM167.493 15.1335C167.57 13.642 168.703 12.4489 170.314 12.4489C171.891 12.4489 172.982 13.5739 172.99 15.1335H167.493ZM182.408 15.4318C182.416 13.7443 183.422 12.7557 184.888 12.7557C186.345 12.7557 187.223 13.7102 187.214 15.3125V23H190.845V14.6648C190.845 11.6136 189.055 9.73864 186.328 9.73864C184.385 9.73864 182.979 10.6932 182.391 12.2188H182.237V9.90909H178.777V23H182.408V15.4318ZM204.599 13.642C204.275 11.2301 202.332 9.73864 199.025 9.73864C195.675 9.73864 193.468 11.2898 193.477 13.8125C193.468 15.7727 194.704 17.0426 197.261 17.554L199.528 18.0057C200.67 18.2358 201.19 18.6534 201.207 19.3097C201.19 20.0852 200.346 20.6392 199.076 20.6392C197.781 20.6392 196.92 20.0852 196.698 19.0199L193.127 19.2074C193.468 21.7131 195.599 23.2557 199.067 23.2557C202.46 23.2557 204.888 21.5256 204.897 18.9432C204.888 17.0511 203.653 15.9176 201.113 15.3977L198.744 14.9205C197.525 14.6562 197.073 14.2386 197.082 13.608C197.073 12.8239 197.96 12.3125 199.085 12.3125C200.346 12.3125 201.096 13.0028 201.275 13.8466L204.599 13.642ZM210.916 23.2472C212.851 23.2472 214.104 22.4034 214.743 21.1847H214.845V23H218.288V14.1705C218.288 11.0511 215.646 9.73864 212.732 9.73864C209.595 9.73864 207.533 11.2386 207.03 13.625L210.388 13.8977C210.635 13.0284 211.411 12.3892 212.714 12.3892C213.95 12.3892 214.658 13.0114 214.658 14.0852V14.1364C214.658 14.9801 213.763 15.0909 211.487 15.3125C208.896 15.5511 206.57 16.4205 206.57 19.3438C206.57 21.9347 208.419 23.2472 210.916 23.2472ZM211.956 20.7415C210.839 20.7415 210.038 20.2216 210.038 19.2244C210.038 18.2017 210.882 17.6989 212.161 17.5199C212.953 17.4091 214.249 17.2216 214.683 16.9318V18.321C214.683 19.6932 213.55 20.7415 211.956 20.7415ZM221.105 9.90909V23.5881C221.105 24.5767 220.688 25.071 219.52 25.071C219.366 25.071 219.23 25.071 219.043 25.054V27.892C219.307 27.9006 219.52 27.9091 219.776 27.9091C222.861 27.9091 224.736 26.6818 224.736 23.6477V9.90909H221.105ZM222.912 8.22159C223.994 8.22159 224.881 7.39489 224.881 6.38068C224.881 5.375 223.994 4.54829 222.912 4.54829C221.838 4.54829 220.952 5.375 220.952 6.38068C220.952 7.39489 221.838 8.22159 222.912 8.22159ZM233.61 23.2557C236.849 23.2557 239.031 21.679 239.542 19.25L236.184 19.0284C235.817 20.0256 234.88 20.5455 233.67 20.5455C231.854 20.5455 230.704 19.3438 230.704 17.392V17.3835H239.619V16.3864C239.619 11.9375 236.925 9.73864 233.465 9.73864C229.613 9.73864 227.116 12.4744 227.116 16.5142C227.116 20.6648 229.579 23.2557 233.61 23.2557ZM230.704 15.1335C230.781 13.642 231.914 12.4489 233.525 12.4489C235.102 12.4489 236.192 13.5739 236.201 15.1335H230.704ZM254.582 9.90909H251.983V9.03125C251.983 8.14489 252.341 7.625 253.406 7.625C253.841 7.625 254.284 7.71875 254.574 7.8125L255.213 5.08523C254.761 4.94886 253.764 4.72727 252.648 4.72727C250.185 4.72727 248.352 6.11648 248.352 8.96307V9.90909H246.503V12.6364H248.352V23H251.983V12.6364H254.582V9.90909ZM265.195 17.4261C265.204 19.1818 264.002 20.1023 262.698 20.1023C261.326 20.1023 260.44 19.1392 260.431 17.5966V9.90909H256.8V18.2443C256.809 21.304 258.599 23.1705 261.232 23.1705C263.201 23.1705 264.616 22.1562 265.204 20.6222H265.34V23H268.826V9.90909H265.195V17.4261ZM277.696 23.2557C280.935 23.2557 283.116 21.679 283.628 19.25L280.27 19.0284C279.903 20.0256 278.966 20.5455 277.756 20.5455C275.94 20.5455 274.79 19.3438 274.79 17.392V17.3835H283.705V16.3864C283.705 11.9375 281.011 9.73864 277.551 9.73864C273.699 9.73864 271.202 12.4744 271.202 16.5142C271.202 20.6648 273.665 23.2557 277.696 23.2557ZM274.79 15.1335C274.866 13.642 276 12.4489 277.611 12.4489C279.188 12.4489 280.278 13.5739 280.287 15.1335H274.79ZM107.575 52.2557C110.814 52.2557 112.995 50.679 113.507 48.25L110.149 48.0284C109.782 49.0256 108.845 49.5455 107.635 49.5455C105.819 49.5455 104.669 48.3438 104.669 46.392V46.3835H113.583V45.3864C113.583 40.9375 110.89 38.7386 107.43 38.7386C103.578 38.7386 101.081 41.4744 101.081 45.5142C101.081 49.6648 103.544 52.2557 107.575 52.2557ZM104.669 44.1335C104.745 42.642 105.879 41.4489 107.49 41.4489C109.066 41.4489 110.157 42.5739 110.166 44.1335H104.669ZM119.583 44.4318C119.592 42.7443 120.598 41.7557 122.064 41.7557C123.521 41.7557 124.399 42.7102 124.39 44.3125V52H128.021V43.6648C128.021 40.6136 126.231 38.7386 123.504 38.7386C121.561 38.7386 120.154 39.6932 119.566 41.2188H119.413V38.9091H115.953V52H119.583V44.4318ZM136.797 52.2557C140.283 52.2557 142.473 50.2102 142.644 47.2017H139.218C139.005 48.5994 138.084 49.3835 136.84 49.3835C135.144 49.3835 134.044 47.9602 134.044 45.4545C134.044 42.983 135.152 41.5682 136.84 41.5682C138.169 41.5682 139.022 42.446 139.218 43.75H142.644C142.49 40.7244 140.198 38.7386 136.78 38.7386C132.809 38.7386 130.354 41.4915 130.354 45.5057C130.354 49.4858 132.766 52.2557 136.797 52.2557ZM150.883 52.2557C154.855 52.2557 157.326 49.5369 157.326 45.5057C157.326 41.4489 154.855 38.7386 150.883 38.7386C146.912 38.7386 144.44 41.4489 144.44 45.5057C144.44 49.5369 146.912 52.2557 150.883 52.2557ZM150.9 49.4432C149.068 49.4432 148.13 47.7642 148.13 45.4801C148.13 43.196 149.068 41.5085 150.9 41.5085C152.699 41.5085 153.636 43.196 153.636 45.4801C153.636 47.7642 152.699 49.4432 150.9 49.4432ZM163.318 44.4318C163.326 42.7443 164.332 41.7557 165.798 41.7557C167.255 41.7557 168.133 42.7102 168.125 44.3125V52H171.755V43.6648C171.755 40.6136 169.966 38.7386 167.238 38.7386C165.295 38.7386 163.889 39.6932 163.301 41.2188H163.147V38.9091H159.687V52H163.318V44.4318ZM181.58 38.9091H179.117V35.7727H175.486V38.9091H173.696V41.6364H175.486V48.4545C175.469 51.0199 177.216 52.2898 179.85 52.179C180.787 52.1449 181.452 51.9574 181.819 51.8381L181.248 49.1364C181.069 49.1705 180.685 49.2557 180.344 49.2557C179.62 49.2557 179.117 48.983 179.117 47.9773V41.6364H181.58V38.9091ZM183.945 52H187.576V44.5938C187.576 42.983 188.752 41.875 190.354 41.875C190.857 41.875 191.547 41.9602 191.888 42.071V38.8494C191.564 38.7727 191.113 38.7216 190.746 38.7216C189.28 38.7216 188.078 39.5739 187.601 41.1932H187.465V38.9091H183.945V52ZM197.123 52.2472C199.058 52.2472 200.311 51.4034 200.95 50.1847H201.052V52H204.495V43.1705C204.495 40.0511 201.853 38.7386 198.939 38.7386C195.802 38.7386 193.74 40.2386 193.237 42.625L196.595 42.8977C196.842 42.0284 197.618 41.3892 198.922 41.3892C200.157 41.3892 200.865 42.0114 200.865 43.0852V43.1364C200.865 43.9801 199.97 44.0909 197.694 44.3125C195.103 44.5511 192.777 45.4205 192.777 48.3438C192.777 50.9347 194.626 52.2472 197.123 52.2472ZM198.163 49.7415C197.047 49.7415 196.245 49.2216 196.245 48.2244C196.245 47.2017 197.089 46.6989 198.368 46.5199C199.16 46.4091 200.456 46.2216 200.89 45.9318V47.321C200.89 48.6932 199.757 49.7415 198.163 49.7415ZM212.136 52.2131C214.25 52.2131 215.349 50.9943 215.852 49.9034H216.005V52H219.585V34.5455H215.963V41.108H215.852C215.366 40.0426 214.318 38.7386 212.127 38.7386C209.255 38.7386 206.826 40.9716 206.826 45.4716C206.826 49.8523 209.153 52.2131 212.136 52.2131ZM213.287 49.3239C211.505 49.3239 210.534 47.7386 210.534 45.4545C210.534 43.1875 211.488 41.6278 213.287 41.6278C215.051 41.6278 216.039 43.1193 216.039 45.4545C216.039 47.7898 215.034 49.3239 213.287 49.3239ZM228.485 52.2557C232.456 52.2557 234.928 49.5369 234.928 45.5057C234.928 41.4489 232.456 38.7386 228.485 38.7386C224.513 38.7386 222.042 41.4489 222.042 45.5057C222.042 49.5369 224.513 52.2557 228.485 52.2557ZM228.502 49.4432C226.669 49.4432 225.732 47.7642 225.732 45.4801C225.732 43.196 226.669 41.5085 228.502 41.5085C230.3 41.5085 231.238 43.196 231.238 45.4801C231.238 47.7642 230.3 49.4432 228.502 49.4432Z" fill="#343A40"/>
<path d="M23.3572 80.3636H21.9482V92H23.3572V80.3636ZM27.3416 86.75C27.3416 85.2273 28.2848 84.3636 29.5689 84.3636C30.8132 84.3636 31.5689 85.1761 31.5689 86.5455V92H32.9098V86.4545C32.9098 84.2273 31.7223 83.1591 29.9553 83.1591C28.6371 83.1591 27.8189 83.75 27.4098 84.6364H27.2962V83.2727H26.0007V92H27.3416V86.75ZM38.8828 95.4545C40.9737 95.4545 42.6555 94.5 42.6555 92.25V83.2727H41.3601V84.6591H41.2237C40.9283 84.2045 40.3828 83.1591 38.6783 83.1591C36.4737 83.1591 34.951 84.9091 34.951 87.5909C34.951 90.3182 36.5419 91.8636 38.6555 91.8636C40.3601 91.8636 40.9055 90.8636 41.201 90.3864H41.3146V92.1591C41.3146 93.6136 40.2919 94.2727 38.8828 94.2727C37.2976 94.2727 36.7408 93.4375 36.3828 92.9545L35.3146 93.7045C35.8601 94.6193 36.9339 95.4545 38.8828 95.4545ZM38.8374 90.6591C37.1555 90.6591 36.2919 89.3864 36.2919 87.5682C36.2919 85.7955 37.1328 84.3636 38.8374 84.3636C40.4737 84.3636 41.3374 85.6818 41.3374 87.5682C41.3374 89.5 40.451 90.6591 38.8374 90.6591ZM45.1101 92H46.451V86.4773C46.451 85.2955 47.3828 84.4318 48.6555 84.4318C49.0135 84.4318 49.3828 84.5 49.4737 84.5227V83.1591C49.3203 83.1477 48.968 83.1364 48.7692 83.1364C47.7237 83.1364 46.8146 83.7273 46.4964 84.5909H46.4055V83.2727H45.1101V92ZM54.4567 92.1818C56.2294 92.1818 57.5249 91.2955 57.9339 89.9773L56.6385 89.6136C56.2976 90.5227 55.5078 90.9773 54.4567 90.9773C52.8828 90.9773 51.7976 89.9602 51.7351 88.0909H58.0703V87.5227C58.0703 84.2727 56.1385 83.1591 54.3203 83.1591C51.9567 83.1591 50.3885 85.0227 50.3885 87.7045C50.3885 90.3864 51.9339 92.1818 54.4567 92.1818ZM51.7351 86.9318C51.826 85.5739 52.7862 84.3636 54.3203 84.3636C55.7749 84.3636 56.7067 85.4545 56.7067 86.9318H51.7351ZM66.2919 85.2273C65.8714 83.9886 64.9283 83.1591 63.201 83.1591C61.3601 83.1591 59.9964 84.2045 59.9964 85.6818C59.9964 86.8864 60.7124 87.6932 62.3146 88.0682L63.7692 88.4091C64.6499 88.6136 65.0646 89.0341 65.0646 89.6364C65.0646 90.3864 64.2692 91 63.0192 91C61.9226 91 61.2351 90.5284 60.9964 89.5909L59.7237 89.9091C60.0362 91.392 61.2578 92.1818 63.0419 92.1818C65.0703 92.1818 66.451 91.0739 66.451 89.5682C66.451 88.3523 65.6896 87.5852 64.1328 87.2045L62.8374 86.8864C61.8033 86.6307 61.3374 86.2841 61.3374 85.6136C61.3374 84.8636 62.1328 84.3182 63.201 84.3182C64.3714 84.3182 64.8544 84.9659 65.0874 85.5682L66.2919 85.2273ZM71.0376 92.2045C72.5604 92.2045 73.3558 91.3864 73.6286 90.8182H73.6967V92H75.0376V86.25C75.0376 83.4773 72.924 83.1591 71.8104 83.1591C70.4922 83.1591 68.9922 83.6136 68.3104 85.2045L69.5831 85.6591C69.8786 85.0227 70.5774 84.3409 71.8558 84.3409C73.0888 84.3409 73.6967 84.9943 73.6967 86.1136V86.1591C73.6967 86.8068 73.0376 86.75 71.4467 86.9545C69.8274 87.1648 68.0604 87.5227 68.0604 89.5227C68.0604 91.2273 69.3786 92.2045 71.0376 92.2045ZM71.2422 91C70.174 91 69.4013 90.5227 69.4013 89.5909C69.4013 88.5682 70.3331 88.25 71.3786 88.1136C71.9467 88.0455 73.4695 87.8864 73.6967 87.6136V88.8409C73.6967 89.9318 72.8331 91 71.2422 91ZM85.6442 92.1818C87.4169 92.1818 88.7124 91.2955 89.1214 89.9773L87.826 89.6136C87.4851 90.5227 86.6953 90.9773 85.6442 90.9773C84.0703 90.9773 82.9851 89.9602 82.9226 88.0909H89.2578V87.5227C89.2578 84.2727 87.326 83.1591 85.5078 83.1591C83.1442 83.1591 81.576 85.0227 81.576 87.7045C81.576 90.3864 83.1214 92.1818 85.6442 92.1818ZM82.9226 86.9318C83.0135 85.5739 83.9737 84.3636 85.5078 84.3636C86.9624 84.3636 87.8942 85.4545 87.8942 86.9318H82.9226ZM92.6385 80.3636H91.2976V92H92.6385V80.3636ZM103.39 83.2727H101.526V81.1818H100.185V83.2727H98.8672V84.4091H100.185V89.8636C100.185 91.3864 101.413 92.1136 102.549 92.1136C103.049 92.1136 103.367 92.0227 103.549 91.9545L103.276 90.75C103.163 90.7727 102.981 90.8182 102.685 90.8182C102.094 90.8182 101.526 90.6364 101.526 89.5V84.4091H103.39V83.2727ZM108.972 92.1818C110.745 92.1818 112.04 91.2955 112.45 89.9773L111.154 89.6136C110.813 90.5227 110.023 90.9773 108.972 90.9773C107.398 90.9773 106.313 89.9602 106.251 88.0909H112.586V87.5227C112.586 84.2727 110.654 83.1591 108.836 83.1591C106.472 83.1591 104.904 85.0227 104.904 87.7045C104.904 90.3864 106.45 92.1818 108.972 92.1818ZM106.251 86.9318C106.342 85.5739 107.302 84.3636 108.836 84.3636C110.29 84.3636 111.222 85.4545 111.222 86.9318H106.251ZM115.391 83.2727H113.846L116.619 87.6364L113.846 92H115.391L117.482 88.6136L119.573 92H121.119L118.3 87.6364L121.119 83.2727H119.573L117.482 86.8409L115.391 83.2727ZM126.827 83.2727H124.964V81.1818H123.623V83.2727H122.305V84.4091H123.623V89.8636C123.623 91.3864 124.85 92.1136 125.987 92.1136C126.487 92.1136 126.805 92.0227 126.987 91.9545L126.714 90.75C126.6 90.7727 126.418 90.8182 126.123 90.8182C125.532 90.8182 124.964 90.6364 124.964 89.5V84.4091H126.827V83.2727ZM132.296 92.1818C134.66 92.1818 136.251 90.3864 136.251 87.6818C136.251 84.9545 134.66 83.1591 132.296 83.1591C129.933 83.1591 128.342 84.9545 128.342 87.6818C128.342 90.3864 129.933 92.1818 132.296 92.1818ZM132.296 90.9773C130.501 90.9773 129.683 89.4318 129.683 87.6818C129.683 85.9318 130.501 84.3636 132.296 84.3636C134.092 84.3636 134.91 85.9318 134.91 87.6818C134.91 89.4318 134.092 90.9773 132.296 90.9773ZM150.093 95.2727V83.2727H148.798V84.6591H148.638C148.343 84.2045 147.82 83.1591 146.116 83.1591C143.911 83.1591 142.388 84.9091 142.388 87.6591C142.388 90.4318 143.911 92.1818 146.093 92.1818C147.775 92.1818 148.343 91.1364 148.638 90.6591H148.752V95.2727H150.093ZM148.775 87.6364C148.775 89.6136 147.888 90.9773 146.275 90.9773C144.593 90.9773 143.729 89.5 143.729 87.6364C143.729 85.7955 144.57 84.3636 146.275 84.3636C147.911 84.3636 148.775 85.6818 148.775 87.6364ZM158.048 88.4318C158.048 90.0682 156.798 90.8182 155.798 90.8182C154.684 90.8182 153.888 90 153.888 88.7273V83.2727H152.548V88.8182C152.548 91.0455 153.729 92.1136 155.366 92.1136C156.684 92.1136 157.548 91.4091 157.957 90.5227H158.048V92H159.388V83.2727H158.048V88.4318ZM165.504 92.1818C167.276 92.1818 168.572 91.2955 168.981 89.9773L167.685 89.6136C167.344 90.5227 166.555 90.9773 165.504 90.9773C163.93 90.9773 162.844 89.9602 162.782 88.0909H169.117V87.5227C169.117 84.2727 167.185 83.1591 165.367 83.1591C163.004 83.1591 161.435 85.0227 161.435 87.7045C161.435 90.3864 162.981 92.1818 165.504 92.1818ZM162.782 86.9318C162.873 85.5739 163.833 84.3636 165.367 84.3636C166.822 84.3636 167.754 85.4545 167.754 86.9318H162.782ZM178.952 92.1818C180.634 92.1818 181.202 91.1364 181.498 90.6591H181.657V92H182.952V80.3636H181.612V84.6591H181.498C181.202 84.2045 180.68 83.1591 178.975 83.1591C176.771 83.1591 175.248 84.9091 175.248 87.6591C175.248 90.4318 176.771 92.1818 178.952 92.1818ZM179.134 90.9773C177.452 90.9773 176.589 89.5 176.589 87.6364C176.589 85.7955 177.43 84.3636 179.134 84.3636C180.771 84.3636 181.634 85.6818 181.634 87.6364C181.634 89.6136 180.748 90.9773 179.134 90.9773ZM189.254 92.1818C191.026 92.1818 192.322 91.2955 192.731 89.9773L191.435 89.6136C191.094 90.5227 190.305 90.9773 189.254 90.9773C187.68 90.9773 186.594 89.9602 186.532 88.0909H192.867V87.5227C192.867 84.2727 190.935 83.1591 189.117 83.1591C186.754 83.1591 185.185 85.0227 185.185 87.7045C185.185 90.3864 186.731 92.1818 189.254 92.1818ZM186.532 86.9318C186.623 85.5739 187.583 84.3636 189.117 84.3636C190.572 84.3636 191.504 85.4545 191.504 86.9318H186.532ZM201.089 85.2273C200.668 83.9886 199.725 83.1591 197.998 83.1591C196.157 83.1591 194.793 84.2045 194.793 85.6818C194.793 86.8864 195.509 87.6932 197.112 88.0682L198.566 88.4091C199.447 88.6136 199.862 89.0341 199.862 89.6364C199.862 90.3864 199.066 91 197.816 91C196.719 91 196.032 90.5284 195.793 89.5909L194.521 89.9091C194.833 91.392 196.055 92.1818 197.839 92.1818C199.867 92.1818 201.248 91.0739 201.248 89.5682C201.248 88.3523 200.487 87.5852 198.93 87.2045L197.634 86.8864C196.6 86.6307 196.134 86.2841 196.134 85.6136C196.134 84.8636 196.93 84.3182 197.998 84.3182C199.168 84.3182 199.651 84.9659 199.884 85.5682L201.089 85.2273ZM206.925 92.1818C208.698 92.1818 209.994 91.2955 210.403 89.9773L209.107 89.6136C208.766 90.5227 207.977 90.9773 206.925 90.9773C205.352 90.9773 204.266 89.9602 204.204 88.0909H210.539V87.5227C210.539 84.2727 208.607 83.1591 206.789 83.1591C204.425 83.1591 202.857 85.0227 202.857 87.7045C202.857 90.3864 204.403 92.1818 206.925 92.1818ZM204.204 86.9318C204.295 85.5739 205.255 84.3636 206.789 84.3636C208.244 84.3636 209.175 85.4545 209.175 86.9318H204.204ZM216.238 92.1818C218.011 92.1818 219.306 91.2955 219.715 89.9773L218.42 89.6136C218.079 90.5227 217.289 90.9773 216.238 90.9773C214.664 90.9773 213.579 89.9602 213.516 88.0909H219.852V87.5227C219.852 84.2727 217.92 83.1591 216.102 83.1591C213.738 83.1591 212.17 85.0227 212.17 87.7045C212.17 90.3864 213.715 92.1818 216.238 92.1818ZM213.516 86.9318C213.607 85.5739 214.567 84.3636 216.102 84.3636C217.556 84.3636 218.488 85.4545 218.488 86.9318H213.516ZM228.073 85.2273C227.653 83.9886 226.71 83.1591 224.982 83.1591C223.141 83.1591 221.778 84.2045 221.778 85.6818C221.778 86.8864 222.494 87.6932 224.096 88.0682L225.55 88.4091C226.431 88.6136 226.846 89.0341 226.846 89.6364C226.846 90.3864 226.05 91 224.8 91C223.704 91 223.016 90.5284 222.778 89.5909L221.505 89.9091C221.817 91.392 223.039 92.1818 224.823 92.1818C226.852 92.1818 228.232 91.0739 228.232 89.5682C228.232 88.3523 227.471 87.5852 225.914 87.2045L224.619 86.8864C223.585 86.6307 223.119 86.2841 223.119 85.6136C223.119 84.8636 223.914 84.3182 224.982 84.3182C226.153 84.3182 226.636 84.9659 226.869 85.5682L228.073 85.2273ZM238.41 92.1818C240.183 92.1818 241.478 91.2955 241.887 89.9773L240.592 89.6136C240.251 90.5227 239.461 90.9773 238.41 90.9773C236.836 90.9773 235.751 89.9602 235.688 88.0909H242.023V87.5227C242.023 84.2727 240.092 83.1591 238.273 83.1591C235.91 83.1591 234.342 85.0227 234.342 87.7045C234.342 90.3864 235.887 92.1818 238.41 92.1818ZM235.688 86.9318C235.779 85.5739 236.739 84.3636 238.273 84.3636C239.728 84.3636 240.66 85.4545 240.66 86.9318H235.688ZM245.404 86.75C245.404 85.2273 246.347 84.3636 247.631 84.3636C248.876 84.3636 249.631 85.1761 249.631 86.5455V92H250.972V86.4545C250.972 84.2273 249.785 83.1591 248.018 83.1591C246.7 83.1591 245.881 83.75 245.472 84.6364H245.359V83.2727H244.063V92H245.404V86.75ZM256.968 92.1818C258.9 92.1818 260.173 91 260.4 89.4545H259.059C258.809 90.4091 258.013 90.9773 256.968 90.9773C255.377 90.9773 254.354 89.6591 254.354 87.6364C254.354 85.6591 255.4 84.3636 256.968 84.3636C258.15 84.3636 258.854 85.0909 259.059 85.8864H260.4C260.173 84.25 258.786 83.1591 256.945 83.1591C254.582 83.1591 253.013 85.0227 253.013 87.6818C253.013 90.2955 254.513 92.1818 256.968 92.1818ZM262.36 92H263.701V86.4773C263.701 85.2955 264.633 84.4318 265.906 84.4318C266.263 84.4318 266.633 84.5 266.724 84.5227V83.1591C266.57 83.1477 266.218 83.1364 266.019 83.1364C264.974 83.1364 264.065 83.7273 263.746 84.5909H263.656V83.2727H262.36V92ZM268.313 92H269.654V83.2727H268.313V92ZM268.995 81.8182C269.518 81.8182 269.95 81.4091 269.95 80.9091C269.95 80.4091 269.518 80 268.995 80C268.472 80 268.04 80.4091 268.04 80.9091C268.04 81.4091 268.472 81.8182 268.995 81.8182ZM272.11 95.2727H273.451V90.6591H273.565C273.86 91.1364 274.428 92.1818 276.11 92.1818C278.292 92.1818 279.815 90.4318 279.815 87.6591C279.815 84.9091 278.292 83.1591 276.087 83.1591C274.383 83.1591 273.86 84.2045 273.565 84.6591H273.406V83.2727H272.11V95.2727ZM273.428 87.6364C273.428 85.6818 274.292 84.3636 275.928 84.3636C277.633 84.3636 278.474 85.7955 278.474 87.6364C278.474 89.5 277.61 90.9773 275.928 90.9773C274.315 90.9773 273.428 89.6136 273.428 87.6364ZM285.656 83.2727H283.792V81.1818H282.451V83.2727H281.133V84.4091H282.451V89.8636C282.451 91.3864 283.678 92.1136 284.815 92.1136C285.315 92.1136 285.633 92.0227 285.815 91.9545L285.542 90.75C285.428 90.7727 285.246 90.8182 284.951 90.8182C284.36 90.8182 283.792 90.6364 283.792 89.5V84.4091H285.656V83.2727ZM290.241 92.2045C291.763 92.2045 292.559 91.3864 292.832 90.8182H292.9V92H294.241V86.25C294.241 83.4773 292.127 83.1591 291.013 83.1591C289.695 83.1591 288.195 83.6136 287.513 85.2045L288.786 85.6591C289.082 85.0227 289.781 84.3409 291.059 84.3409C292.292 84.3409 292.9 84.9943 292.9 86.1136V86.1591C292.9 86.8068 292.241 86.75 290.65 86.9545C289.031 87.1648 287.263 87.5227 287.263 89.5227C287.263 91.2273 288.582 92.2045 290.241 92.2045ZM290.445 91C289.377 91 288.604 90.5227 288.604 89.5909C288.604 88.5682 289.536 88.25 290.582 88.1136C291.15 88.0455 292.673 87.8864 292.9 87.6136V88.8409C292.9 89.9318 292.036 91 290.445 91ZM296.688 92H298.029V86.4773C298.029 85.2955 298.961 84.4318 300.234 84.4318C300.592 84.4318 300.961 84.5 301.052 84.5227V83.1591C300.898 83.1477 300.546 83.1364 300.347 83.1364C299.302 83.1364 298.393 83.7273 298.075 84.5909H297.984V83.2727H296.688V92ZM310.687 92.1818C313.05 92.1818 314.641 90.3864 314.641 87.6818C314.641 84.9545 313.05 83.1591 310.687 83.1591C308.323 83.1591 306.732 84.9545 306.732 87.6818C306.732 90.3864 308.323 92.1818 310.687 92.1818ZM310.687 90.9773C308.891 90.9773 308.073 89.4318 308.073 87.6818C308.073 85.9318 308.891 84.3636 310.687 84.3636C312.482 84.3636 313.3 85.9318 313.3 87.6818C313.3 89.4318 312.482 90.9773 310.687 90.9773ZM123.07 116.182C124.751 116.182 125.32 115.136 125.615 114.659H125.774V116H127.07V104.364H125.729V108.659H125.615C125.32 108.205 124.797 107.159 123.092 107.159C120.888 107.159 119.365 108.909 119.365 111.659C119.365 114.432 120.888 116.182 123.07 116.182ZM123.251 114.977C121.57 114.977 120.706 113.5 120.706 111.636C120.706 109.795 121.547 108.364 123.251 108.364C124.888 108.364 125.751 109.682 125.751 111.636C125.751 113.614 124.865 114.977 123.251 114.977ZM133.371 116.182C135.143 116.182 136.439 115.295 136.848 113.977L135.553 113.614C135.212 114.523 134.422 114.977 133.371 114.977C131.797 114.977 130.712 113.96 130.649 112.091H136.984V111.523C136.984 108.273 135.053 107.159 133.234 107.159C130.871 107.159 129.303 109.023 129.303 111.705C129.303 114.386 130.848 116.182 133.371 116.182ZM130.649 110.932C130.74 109.574 131.7 108.364 133.234 108.364C134.689 108.364 135.621 109.455 135.621 110.932H130.649ZM145.206 109.227C144.786 107.989 143.842 107.159 142.115 107.159C140.274 107.159 138.911 108.205 138.911 109.682C138.911 110.886 139.626 111.693 141.229 112.068L142.683 112.409C143.564 112.614 143.979 113.034 143.979 113.636C143.979 114.386 143.183 115 141.933 115C140.837 115 140.149 114.528 139.911 113.591L138.638 113.909C138.95 115.392 140.172 116.182 141.956 116.182C143.984 116.182 145.365 115.074 145.365 113.568C145.365 112.352 144.604 111.585 143.047 111.205L141.751 110.886C140.717 110.631 140.251 110.284 140.251 109.614C140.251 108.864 141.047 108.318 142.115 108.318C143.286 108.318 143.768 108.966 144.001 109.568L145.206 109.227ZM151.043 116.182C152.815 116.182 154.111 115.295 154.52 113.977L153.224 113.614C152.884 114.523 152.094 114.977 151.043 114.977C149.469 114.977 148.384 113.96 148.321 112.091H154.656V111.523C154.656 108.273 152.724 107.159 150.906 107.159C148.543 107.159 146.974 109.023 146.974 111.705C146.974 114.386 148.52 116.182 151.043 116.182ZM148.321 110.932C148.412 109.574 149.372 108.364 150.906 108.364C152.361 108.364 153.293 109.455 153.293 110.932H148.321ZM158.037 110.75C158.037 109.227 158.98 108.364 160.264 108.364C161.509 108.364 162.264 109.176 162.264 110.545V116H163.605V110.455C163.605 108.227 162.418 107.159 160.651 107.159C159.332 107.159 158.514 107.75 158.105 108.636H157.991V107.273H156.696V116H158.037V110.75ZM169.601 116.182C171.533 116.182 172.805 115 173.033 113.455H171.692C171.442 114.409 170.646 114.977 169.601 114.977C168.01 114.977 166.987 113.659 166.987 111.636C166.987 109.659 168.033 108.364 169.601 108.364C170.783 108.364 171.487 109.091 171.692 109.886H173.033C172.805 108.25 171.419 107.159 169.578 107.159C167.214 107.159 165.646 109.023 165.646 111.682C165.646 114.295 167.146 116.182 169.601 116.182ZM174.993 116H176.334V110.477C176.334 109.295 177.266 108.432 178.538 108.432C178.896 108.432 179.266 108.5 179.357 108.523V107.159C179.203 107.148 178.851 107.136 178.652 107.136C177.607 107.136 176.697 107.727 176.379 108.591H176.288V107.273H174.993V116ZM180.946 116H182.287V107.273H180.946V116ZM181.628 105.818C182.151 105.818 182.582 105.409 182.582 104.909C182.582 104.409 182.151 104 181.628 104C181.105 104 180.673 104.409 180.673 104.909C180.673 105.409 181.105 105.818 181.628 105.818ZM184.743 119.273H186.084V114.659H186.197C186.493 115.136 187.061 116.182 188.743 116.182C190.925 116.182 192.447 114.432 192.447 111.659C192.447 108.909 190.925 107.159 188.72 107.159C187.016 107.159 186.493 108.205 186.197 108.659H186.038V107.273H184.743V119.273ZM186.061 111.636C186.061 109.682 186.925 108.364 188.561 108.364C190.266 108.364 191.107 109.795 191.107 111.636C191.107 113.5 190.243 114.977 188.561 114.977C186.947 114.977 186.061 113.614 186.061 111.636ZM198.288 107.273H196.425V105.182H195.084V107.273H193.766V108.409H195.084V113.864C195.084 115.386 196.311 116.114 197.447 116.114C197.947 116.114 198.266 116.023 198.447 115.955L198.175 114.75C198.061 114.773 197.879 114.818 197.584 114.818C196.993 114.818 196.425 114.636 196.425 113.5V108.409H198.288V107.273ZM202.874 116.205C204.396 116.205 205.192 115.386 205.464 114.818H205.533V116H206.874V110.25C206.874 107.477 204.76 107.159 203.646 107.159C202.328 107.159 200.828 107.614 200.146 109.205L201.419 109.659C201.714 109.023 202.413 108.341 203.692 108.341C204.925 108.341 205.533 108.994 205.533 110.114V110.159C205.533 110.807 204.874 110.75 203.283 110.955C201.663 111.165 199.896 111.523 199.896 113.523C199.896 115.227 201.214 116.205 202.874 116.205ZM203.078 115C202.01 115 201.237 114.523 201.237 113.591C201.237 112.568 202.169 112.25 203.214 112.114C203.783 112.045 205.305 111.886 205.533 111.614V112.841C205.533 113.932 204.669 115 203.078 115ZM209.321 116H210.662V110.477C210.662 109.295 211.594 108.432 212.866 108.432C213.224 108.432 213.594 108.5 213.685 108.523V107.159C213.531 107.148 213.179 107.136 212.98 107.136C211.935 107.136 211.026 107.727 210.707 108.591H210.616V107.273H209.321V116ZM215.251 116.091C215.814 116.091 216.274 115.631 216.274 115.068C216.274 114.506 215.814 114.045 215.251 114.045C214.689 114.045 214.229 114.506 214.229 115.068C214.229 115.631 214.689 116.091 215.251 116.091Z" fill="#495057"/>
</svg>
