<?xml version="1.0" ?><svg id="Layer_1" style="enable-background:new 0 0 64 64;" version="1.1" viewBox="0 0 64 64" xml:space="preserve" xmlns="http://www.w3.org/2000/svg" xmlns:xlink="http://www.w3.org/1999/xlink"><style type="text/css">
	.st0{fill:#171516;}
	.st1{fill:#314A52;}
	.st2{fill:#FFFFFF;}
	.st3{fill-rule:evenodd;clip-rule:evenodd;fill:#ACBDC5;}
</style><g id="GitHub"><path class="st0" d="M64,32c0,14.2-9.2,26.2-22,30.4H22C9.2,58.2,0,46.2,0,32C0,14.3,14.3,0,32,0S64,14.3,64,32z"/><path class="st1" d="M60,32c0,15.5-12.5,20-28,20S4,47.5,4,32S16.5,4,32,4S60,16.5,60,32z"/><path class="st2" d="M44,45c3-1,8-4,8-13c0-3.5-0.9-6.7-2.9-9.3c2.2-5.3-0.2-8.7-1.1-8.7c-0.8,0-4.2,0.6-7.3,3.1   C38.2,16.4,35.3,16,32,16c-3.3,0-6.2,0.4-8.7,1.1C20.2,14.6,16.8,14,16,14c-0.9,0-3.3,3.4-1.1,8.7c-2,2.6-2.9,5.8-2.9,9.3   c0,9,5,12,8,13c2.4,0.8,5,1.3,6,1.5c-0.6,0.6-1.6,2.2-1.9,4.4c-0.8,0.6-2,1.1-3.6,1.1c-3,0-4.5-2-6-4S11,45,10,45s-2,0.5-1,1.5   s2.3,0.2,5,5c2,3.6,4.5,3.5,6.5,3.5c1.8,0,3.5-1,3.5-1h15l1-2c0-2.8-1.3-4.8-2-5.5C39,46.3,41.6,45.8,44,45z"/><path class="st3" d="M9,46.5c-0.6-0.6-0.5-1-0.1-1.2c1.8,1.8,4.1,3.2,6.8,4.2c1.2,1.4,2.6,2.5,4.8,2.5c1,0,1.9-0.3,2.7-0.6   c2.8,0.4,5.8,0.6,8.8,0.6c2.8,0,5.5-0.1,8-0.5c0,0.2,0,0.3,0,0.5v8l2.3,2.3c-6.7,2.3-13.9,2.3-20.6,0L24,60v-4.8   c-0.8,0.3-2.2,0.8-3.5,0.8c-2,0-5-0.4-7-4c-2-3.7-3-4.4-3.8-4.9C9.5,46.9,9.2,46.7,9,46.5z"/></g></svg>