<svg width="229" height="18" viewBox="0 0 229 18" fill="none" xmlns="http://www.w3.org/2000/svg">
<path d="M16 9C16 11.1217 15.1571 13.1566 13.6569 14.6569C12.1566 16.1571 10.1217 17 8 17C5.87827 17 3.84344 16.1571 2.34315 14.6569C0.842855 13.1566 0 11.1217 0 9C0 6.87827 0.842855 4.84344 2.34315 3.34315C3.84344 1.84285 5.87827 1 8 1C10.1217 1 12.1566 1.84285 13.6569 3.34315C15.1571 4.84344 16 6.87827 16 9ZM8 5C7.87361 5.00007 7.74863 5.02662 7.63312 5.07793C7.51761 5.12924 7.41413 5.20418 7.32934 5.29791C7.24456 5.39165 7.18035 5.5021 7.14084 5.62217C7.10134 5.74223 7.08743 5.86923 7.1 5.995L7.45 9.502C7.46176 9.63977 7.5248 9.76811 7.62664 9.86164C7.72849 9.95516 7.86173 10.0071 8 10.0071C8.13827 10.0071 8.27151 9.95516 8.37336 9.86164C8.4752 9.76811 8.53824 9.63977 8.55 9.502L8.9 5.995C8.91257 5.86923 8.89866 5.74223 8.85915 5.62217C8.81965 5.5021 8.75544 5.39165 8.67066 5.29791C8.58587 5.20418 8.48239 5.12924 8.36688 5.07793C8.25137 5.02662 8.12639 5.00007 8 5ZM8.002 11C7.73678 11 7.48243 11.1054 7.29489 11.2929C7.10736 11.4804 7.002 11.7348 7.002 12C7.002 12.2652 7.10736 12.5196 7.29489 12.7071C7.48243 12.8946 7.73678 13 8.002 13C8.26722 13 8.52157 12.8946 8.70911 12.7071C8.89664 12.5196 9.002 12.2652 9.002 12C9.002 11.7348 8.89664 11.4804 8.70911 11.2929C8.52157 11.1054 8.26722 11 8.002 11Z" fill="#495057"/>
<path opacity="0.8" d="M29.8295 6.45455H30.8523C30.8054 5.13778 29.5909 4.15341 27.9034 4.15341C26.233 4.15341 24.9205 5.125 24.9205 6.59091C24.9205 7.76705 25.7727 8.46591 27.1364 8.85795L28.2102 9.16477C29.1307 9.42045 29.9489 9.74432 29.9489 10.6136C29.9489 11.5682 29.0284 12.1989 27.8182 12.1989C26.7784 12.1989 25.858 11.7386 25.7727 10.75H24.6818C24.7841 12.1818 25.9432 13.1534 27.8182 13.1534C29.8295 13.1534 30.9716 12.0455 30.9716 10.6307C30.9716 8.99432 29.4205 8.46591 28.517 8.22727L27.6307 7.98864C26.983 7.81818 25.9432 7.47727 25.9432 6.53977C25.9432 5.70455 26.7102 5.09091 27.8693 5.09091C28.9261 5.09091 29.7273 5.59375 29.8295 6.45455ZM35.2319 13.1364C37.0046 13.1364 38.1978 11.7898 38.1978 9.76136C38.1978 7.71591 37.0046 6.36932 35.2319 6.36932C33.4592 6.36932 32.266 7.71591 32.266 9.76136C32.266 11.7898 33.4592 13.1364 35.2319 13.1364ZM35.2319 12.233C33.8853 12.233 33.2717 11.0739 33.2717 9.76136C33.2717 8.44886 33.8853 7.27273 35.2319 7.27273C36.5785 7.27273 37.1921 8.44886 37.1921 9.76136C37.1921 11.0739 36.5785 12.233 35.2319 12.233ZM40.7386 4.27273H39.733V13H40.7386V4.27273ZM45.2397 13.1364C47.0124 13.1364 48.2056 11.7898 48.2056 9.76136C48.2056 7.71591 47.0124 6.36932 45.2397 6.36932C43.467 6.36932 42.2738 7.71591 42.2738 9.76136C42.2738 11.7898 43.467 13.1364 45.2397 13.1364ZM45.2397 12.233C43.8931 12.233 43.2795 11.0739 43.2795 9.76136C43.2795 8.44886 43.8931 7.27273 45.2397 7.27273C46.5863 7.27273 47.1999 8.44886 47.1999 9.76136C47.1999 11.0739 46.5863 12.233 45.2397 12.233ZM54.1214 4.27273H53.1158V13H54.1214V4.27273ZM58.7077 13.1364C60.0373 13.1364 61.0089 12.4716 61.3157 11.483L60.3441 11.2102C60.0884 11.892 59.4961 12.233 58.7077 12.233C57.5273 12.233 56.7134 11.4702 56.6665 10.0682H61.418V9.64205C61.418 7.20455 59.9691 6.36932 58.6055 6.36932C56.8327 6.36932 55.6566 7.76705 55.6566 9.77841C55.6566 11.7898 56.8157 13.1364 58.7077 13.1364ZM56.6665 9.19886C56.7347 8.1804 57.4549 7.27273 58.6055 7.27273C59.6964 7.27273 60.3952 8.09091 60.3952 9.19886H56.6665ZM65.7944 6.45455H64.3967V4.88636H63.391V6.45455H62.4023V7.30682H63.391V11.3977C63.391 12.5398 64.3114 13.0852 65.1637 13.0852C65.5387 13.0852 65.7773 13.017 65.9137 12.9659L65.7092 12.0625C65.6239 12.0795 65.4876 12.1136 65.266 12.1136C64.8228 12.1136 64.3967 11.9773 64.3967 11.125V7.30682H65.7944V6.45455ZM67.3072 13H68.3129V8.85795C68.3129 7.97159 69.0117 7.32386 69.9663 7.32386C70.2347 7.32386 70.5117 7.375 70.5799 7.39205V6.36932C70.4648 6.3608 70.2006 6.35227 70.0515 6.35227C69.2674 6.35227 68.5856 6.79545 68.3469 7.44318H68.2788V6.45455H67.3072V13ZM73.6982 13.1534C74.8402 13.1534 75.4368 12.5398 75.6413 12.1136H75.6925V13H76.6982V8.6875C76.6982 6.60795 75.1129 6.36932 74.2777 6.36932C73.2891 6.36932 72.1641 6.71023 71.6527 7.90341L72.6072 8.24432C72.8288 7.76705 73.353 7.25568 74.3118 7.25568C75.2365 7.25568 75.6925 7.74574 75.6925 8.58523V8.61932C75.6925 9.10511 75.1982 9.0625 74.005 9.21591C72.7905 9.37358 71.4652 9.64205 71.4652 11.142C71.4652 12.4205 72.4538 13.1534 73.6982 13.1534ZM73.8516 12.25C73.0504 12.25 72.4709 11.892 72.4709 11.1932C72.4709 10.4261 73.1697 10.1875 73.9538 10.0852C74.38 10.0341 75.522 9.91477 75.6925 9.71023V10.6307C75.6925 11.4489 75.0447 12.25 73.8516 12.25ZM83.1701 7.92045C82.8548 6.99148 82.1474 6.36932 80.8519 6.36932C79.4712 6.36932 78.4485 7.15341 78.4485 8.26136C78.4485 9.16477 78.9854 9.76989 80.1871 10.0511L81.2781 10.3068C81.9386 10.4602 82.2496 10.7756 82.2496 11.2273C82.2496 11.7898 81.6531 12.25 80.7156 12.25C79.8931 12.25 79.3775 11.8963 79.1985 11.1932L78.244 11.4318C78.4783 12.544 79.3945 13.1364 80.7326 13.1364C82.2539 13.1364 83.2894 12.3054 83.2894 11.1761C83.2894 10.2642 82.7184 9.68892 81.5508 9.40341L80.5792 9.16477C79.8036 8.97301 79.4542 8.71307 79.4542 8.21023C79.4542 7.64773 80.0508 7.23864 80.8519 7.23864C81.7298 7.23864 82.092 7.72443 82.2667 8.17614L83.1701 7.92045ZM88.1783 13H89.1839V8.90909C89.1839 7.95028 89.8828 7.27273 90.6669 7.27273C91.4297 7.27273 91.9624 7.77131 91.9624 8.51705V13H92.9851V8.73864C92.9851 7.89489 93.5135 7.27273 94.4339 7.27273C95.1499 7.27273 95.7635 7.65199 95.7635 8.61932V13H96.7692V8.61932C96.7692 7.08097 95.9425 6.36932 94.7749 6.36932C93.8374 6.36932 93.1513 6.79972 92.8146 7.47727H92.7464C92.4226 6.77841 91.8516 6.36932 90.9908 6.36932C90.1385 6.36932 89.5078 6.77841 89.2351 7.47727H89.1499V6.45455H88.1783V13ZM98.608 13H99.6136V6.45455H98.608V13ZM99.1193 5.36364C99.5114 5.36364 99.8352 5.05682 99.8352 4.68182C99.8352 4.30682 99.5114 4 99.1193 4C98.7273 4 98.4034 4.30682 98.4034 4.68182C98.4034 5.05682 98.7273 5.36364 99.1193 5.36364ZM102.461 9.0625C102.461 7.92045 103.169 7.27273 104.132 7.27273C105.065 7.27273 105.632 7.8821 105.632 8.90909V13H106.637V8.84091C106.637 7.17045 105.747 6.36932 104.422 6.36932C103.433 6.36932 102.819 6.8125 102.512 7.47727H102.427V6.45455H101.456V13H102.461V9.0625ZM112.6 10.3239C112.6 11.5511 111.663 12.1136 110.913 12.1136C110.077 12.1136 109.481 11.5 109.481 10.5455V6.45455H108.475V10.6136C108.475 12.2841 109.362 13.0852 110.589 13.0852C111.577 13.0852 112.225 12.5568 112.532 11.892H112.6V13H113.606V6.45455H112.6V10.3239ZM110.589 5.56818H111.475L112.805 3.59091H111.629L110.589 5.56818ZM120.084 7.92045C119.769 6.99148 119.061 6.36932 117.766 6.36932C116.385 6.36932 115.363 7.15341 115.363 8.26136C115.363 9.16477 115.9 9.76989 117.101 10.0511L118.192 10.3068C118.853 10.4602 119.164 10.7756 119.164 11.2273C119.164 11.7898 118.567 12.25 117.63 12.25C116.807 12.25 116.292 11.8963 116.113 11.1932L115.158 11.4318C115.392 12.544 116.309 13.1364 117.647 13.1364C119.168 13.1364 120.203 12.3054 120.203 11.1761C120.203 10.2642 119.632 9.68892 118.465 9.40341L117.493 9.16477C116.718 8.97301 116.368 8.71307 116.368 8.21023C116.368 7.64773 116.965 7.23864 117.766 7.23864C118.644 7.23864 119.006 7.72443 119.181 8.17614L120.084 7.92045ZM124.376 13.1364C125.825 13.1364 126.78 12.25 126.95 11.0909H125.945C125.757 11.8068 125.161 12.233 124.376 12.233C123.183 12.233 122.416 11.2443 122.416 9.72727C122.416 8.24432 123.2 7.27273 124.376 7.27273C125.263 7.27273 125.791 7.81818 125.945 8.41477H126.95C126.78 7.1875 125.74 6.36932 124.359 6.36932C122.587 6.36932 121.411 7.76705 121.411 9.76136C121.411 11.7216 122.536 13.1364 124.376 13.1364ZM132.545 10.3239C132.545 11.5511 131.608 12.1136 130.858 12.1136C130.023 12.1136 129.426 11.5 129.426 10.5455V6.45455H128.42V10.6136C128.42 12.2841 129.307 13.0852 130.534 13.0852C131.523 13.0852 132.17 12.5568 132.477 11.892H132.545V13H133.551V6.45455H132.545V10.3239ZM136.399 4.27273H135.393V13H136.399V4.27273ZM140.167 13.1534C141.309 13.1534 141.906 12.5398 142.11 12.1136H142.161V13H143.167V8.6875C143.167 6.60795 141.582 6.36932 140.746 6.36932C139.758 6.36932 138.633 6.71023 138.121 7.90341L139.076 8.24432C139.298 7.76705 139.822 7.25568 140.781 7.25568C141.705 7.25568 142.161 7.74574 142.161 8.58523V8.61932C142.161 9.10511 141.667 9.0625 140.474 9.21591C139.259 9.37358 137.934 9.64205 137.934 11.142C137.934 12.4205 138.923 13.1534 140.167 13.1534ZM140.32 12.25C139.519 12.25 138.94 11.892 138.94 11.1932C138.94 10.4261 139.638 10.1875 140.423 10.0852C140.849 10.0341 141.991 9.91477 142.161 9.71023V10.6307C142.161 11.4489 141.513 12.25 140.32 12.25ZM149.639 7.92045C149.324 6.99148 148.616 6.36932 147.321 6.36932C145.94 6.36932 144.917 7.15341 144.917 8.26136C144.917 9.16477 145.454 9.76989 146.656 10.0511L147.747 10.3068C148.407 10.4602 148.718 10.7756 148.718 11.2273C148.718 11.7898 148.122 12.25 147.184 12.25C146.362 12.25 145.846 11.8963 145.667 11.1932L144.713 11.4318C144.947 12.544 145.863 13.1364 147.201 13.1364C148.723 13.1364 149.758 12.3054 149.758 11.1761C149.758 10.2642 149.187 9.68892 148.02 9.40341L147.048 9.16477C146.272 8.97301 145.923 8.71307 145.923 8.21023C145.923 7.64773 146.52 7.23864 147.321 7.23864C148.199 7.23864 148.561 7.72443 148.735 8.17614L149.639 7.92045ZM155.295 15.4545C156.202 15.4545 156.842 14.973 157.221 13.9545L160.008 6.47159L158.908 6.45455L157.102 11.6705H157.033L155.227 6.45455H154.136L156.556 13.0341L156.369 13.5455C156.002 14.5426 155.55 14.6364 154.817 14.4489L154.562 15.3352C154.664 15.3864 154.954 15.4545 155.295 15.4545ZM169.35 7.92045C169.034 6.99148 168.327 6.36932 167.032 6.36932C165.651 6.36932 164.628 7.15341 164.628 8.26136C164.628 9.16477 165.165 9.76989 166.367 10.0511L167.458 10.3068C168.118 10.4602 168.429 10.7756 168.429 11.2273C168.429 11.7898 167.833 12.25 166.895 12.25C166.073 12.25 165.557 11.8963 165.378 11.1932L164.424 11.4318C164.658 12.544 165.574 13.1364 166.912 13.1364C168.434 13.1364 169.469 12.3054 169.469 11.1761C169.469 10.2642 168.898 9.68892 167.73 9.40341L166.759 9.16477C165.983 8.97301 165.634 8.71307 165.634 8.21023C165.634 7.64773 166.23 7.23864 167.032 7.23864C167.909 7.23864 168.272 7.72443 168.446 8.17614L169.35 7.92045ZM170.983 13H171.989V6.45455H170.983V13ZM171.494 5.36364C171.886 5.36364 172.21 5.05682 172.21 4.68182C172.21 4.30682 171.886 4 171.494 4C171.102 4 170.778 4.30682 170.778 4.68182C170.778 5.05682 171.102 5.36364 171.494 5.36364ZM174.836 9.0625C174.836 7.92045 175.544 7.27273 176.507 7.27273C177.44 7.27273 178.007 7.8821 178.007 8.90909V13H179.012V8.84091C179.012 7.17045 178.122 6.36932 176.797 6.36932C175.808 6.36932 175.194 6.8125 174.887 7.47727H174.802V6.45455H173.831V13H174.836V9.0625ZM186.151 13.1534C187.293 13.1534 187.89 12.5398 188.094 12.1136H188.146V13H189.151V8.6875C189.151 6.60795 187.566 6.36932 186.731 6.36932C185.742 6.36932 184.617 6.71023 184.106 7.90341L185.06 8.24432C185.282 7.76705 185.806 7.25568 186.765 7.25568C187.69 7.25568 188.146 7.74574 188.146 8.58523V8.61932C188.146 9.10511 187.651 9.0625 186.458 9.21591C185.244 9.37358 183.918 9.64205 183.918 11.142C183.918 12.4205 184.907 13.1534 186.151 13.1534ZM186.305 12.25C185.504 12.25 184.924 11.892 184.924 11.1932C184.924 10.4261 185.623 10.1875 186.407 10.0852C186.833 10.0341 187.975 9.91477 188.146 9.71023V10.6307C188.146 11.4489 187.498 12.25 186.305 12.25ZM193.646 13.1364C195.095 13.1364 196.049 12.25 196.22 11.0909H195.214C195.027 11.8068 194.43 12.233 193.646 12.233C192.453 12.233 191.686 11.2443 191.686 9.72727C191.686 8.24432 192.47 7.27273 193.646 7.27273C194.532 7.27273 195.061 7.81818 195.214 8.41477H196.22C196.049 7.1875 195.01 6.36932 193.629 6.36932C191.856 6.36932 190.68 7.76705 190.68 9.76136C190.68 11.7216 191.805 13.1364 193.646 13.1364ZM200.434 13.1364C201.764 13.1364 202.735 12.4716 203.042 11.483L202.071 11.2102C201.815 11.892 201.223 12.233 200.434 12.233C199.254 12.233 198.44 11.4702 198.393 10.0682H203.145V9.64205C203.145 7.20455 201.696 6.36932 200.332 6.36932C198.559 6.36932 197.383 7.76705 197.383 9.77841C197.383 11.7898 198.542 13.1364 200.434 13.1364ZM198.393 9.19886C198.461 8.1804 199.181 7.27273 200.332 7.27273C201.423 7.27273 202.122 8.09091 202.122 9.19886H198.393ZM205.68 9.0625C205.68 7.92045 206.387 7.27273 207.35 7.27273C208.284 7.27273 208.85 7.8821 208.85 8.90909V13H209.856V8.84091C209.856 7.17045 208.966 6.36932 207.64 6.36932C206.652 6.36932 206.038 6.8125 205.731 7.47727H205.646V6.45455H204.674V13H205.68V9.0625ZM214.54 6.45455H213.143V4.88636H212.137V6.45455H211.148V7.30682H212.137V11.3977C212.137 12.5398 213.058 13.0852 213.91 13.0852C214.285 13.0852 214.523 13.017 214.66 12.9659L214.455 12.0625C214.37 12.0795 214.234 12.1136 214.012 12.1136C213.569 12.1136 213.143 11.9773 213.143 11.125V7.30682H214.54V6.45455ZM218.642 13.1364C220.415 13.1364 221.608 11.7898 221.608 9.76136C221.608 7.71591 220.415 6.36932 218.642 6.36932C216.869 6.36932 215.676 7.71591 215.676 9.76136C215.676 11.7898 216.869 13.1364 218.642 13.1364ZM218.642 12.233C217.295 12.233 216.682 11.0739 216.682 9.76136C216.682 8.44886 217.295 7.27273 218.642 7.27273C219.989 7.27273 220.602 8.44886 220.602 9.76136C220.602 11.0739 219.989 12.233 218.642 12.233ZM227.779 7.92045C227.464 6.99148 226.757 6.36932 225.461 6.36932C224.081 6.36932 223.058 7.15341 223.058 8.26136C223.058 9.16477 223.595 9.76989 224.797 10.0511L225.887 10.3068C226.548 10.4602 226.859 10.7756 226.859 11.2273C226.859 11.7898 226.262 12.25 225.325 12.25C224.502 12.25 223.987 11.8963 223.808 11.1932L222.853 11.4318C223.088 12.544 224.004 13.1364 225.342 13.1364C226.863 13.1364 227.899 12.3054 227.899 11.1761C227.899 10.2642 227.328 9.68892 226.16 9.40341L225.189 9.16477C224.413 8.97301 224.064 8.71307 224.064 8.21023C224.064 7.64773 224.66 7.23864 225.461 7.23864C226.339 7.23864 226.701 7.72443 226.876 8.17614L227.779 7.92045Z" fill="#495057"/>
</svg>
